<svg width="78" height="78" viewBox="0 0 78 78" fill="none" xmlns="http://www.w3.org/2000/svg">
<path d="M59.1094 22.547H18.8906C18.5674 22.547 18.2574 22.6754 18.0288 22.904C17.8003 23.1325 17.6719 23.4425 17.6719 23.7657C17.6719 24.089 17.8003 24.399 18.0288 24.6275C18.2574 24.8561 18.5674 24.9845 18.8906 24.9845H59.1094C59.4326 24.9845 59.7426 24.8561 59.9712 24.6275C60.1997 24.399 60.3281 24.089 60.3281 23.7657C60.3281 23.4425 60.1997 23.1325 59.9712 22.904C59.7426 22.6754 59.4326 22.547 59.1094 22.547ZM60.3281 29.8596C60.3281 29.5363 60.1997 29.2264 59.9711 28.9978C59.7426 28.7692 59.4326 28.6408 59.1094 28.6408H18.8906C18.5674 28.6408 18.2574 28.7692 18.0288 28.9978C17.8003 29.2263 17.6719 29.5363 17.6719 29.8596C17.6719 30.1828 17.8003 30.4928 18.0288 30.7213C18.2574 30.9499 18.5674 31.0783 18.8906 31.0783H59.1094C59.4326 31.0783 59.7426 30.9499 59.9711 30.7213C60.1997 30.4928 60.3281 30.1828 60.3281 29.8596ZM37.1719 35.9534C37.1719 35.6301 37.0434 35.3202 36.8149 35.0916C36.5863 34.863 36.2764 34.7346 35.9531 34.7346H18.8906C18.5674 34.7346 18.2574 34.863 18.0288 35.0916C17.8003 35.3201 17.6719 35.6301 17.6719 35.9534C17.6719 36.2766 17.8003 36.5866 18.0288 36.8152C18.2574 37.0437 18.5674 37.1721 18.8906 37.1721H35.9531C36.2764 37.1721 36.5863 37.0437 36.8149 36.8151C37.0434 36.5866 37.1719 36.2766 37.1719 35.9534ZM17.6719 47.5316C17.6719 48.4958 17.9578 49.4383 18.4935 50.24C19.0292 51.0417 19.7905 51.6665 20.6813 52.0355C21.5721 52.4044 22.5523 52.501 23.498 52.3129C24.4436 52.1248 25.3123 51.6605 25.994 50.9787C26.6758 50.2969 27.1401 49.4283 27.3282 48.4826C27.5163 47.5369 27.4198 46.5568 27.0508 45.666C26.6818 44.7752 26.057 44.0138 25.2553 43.4781C24.4536 42.9425 23.5111 42.6566 22.5469 42.6566C21.2544 42.658 20.0153 43.1721 19.1013 44.086C18.1874 45 17.6733 46.2391 17.6719 47.5316ZM24.9844 47.5316C24.9844 48.0137 24.8414 48.485 24.5736 48.8858C24.3057 49.2866 23.9251 49.5991 23.4797 49.7836C23.0343 49.968 22.5442 50.0163 22.0713 49.9223C21.5985 49.8282 21.1642 49.5961 20.8233 49.2552C20.4824 48.9143 20.2503 48.48 20.1562 48.0071C20.0622 47.5343 20.1104 47.0442 20.2949 46.5988C20.4794 46.1534 20.7918 45.7727 21.1927 45.5049C21.5935 45.2371 22.0648 45.0941 22.5469 45.0941C23.1933 45.0941 23.8133 45.3509 24.2704 45.808C24.7276 46.2651 24.9844 46.8851 24.9844 47.5316Z" fill="#D90429"/>
<path d="M74.3438 6.09375H3.65625C2.68687 6.09481 1.7575 6.48037 1.07205 7.16583C0.386604 7.85128 0.00105488 8.78065 0 9.75003L0 59.7192C0.00105488 60.6886 0.386604 61.618 1.07205 62.3034C1.7575 62.9889 2.68687 63.3745 3.65625 63.3755H40.5832L42.3232 60.938H3.65625C3.33315 60.9376 3.0234 60.8091 2.79493 60.5806C2.56646 60.3521 2.43792 60.0424 2.4375 59.7193V9.75003C2.43792 9.42693 2.56646 9.11718 2.79493 8.88871C3.0234 8.66024 3.33315 8.5317 3.65625 8.53128H74.3438C74.6669 8.5317 74.9766 8.66024 75.2051 8.88871C75.4335 9.11718 75.5621 9.42693 75.5625 9.75003V59.7192C75.5621 60.0423 75.4335 60.3521 75.2051 60.5806C74.9766 60.809 74.6669 60.9376 74.3438 60.938H66.146L67.8861 63.3755H74.3438C75.3131 63.3744 76.2425 62.9889 76.9279 62.3034C77.6134 61.618 77.9989 60.6886 78 59.7192V9.75003C77.9989 8.78065 77.6134 7.85128 76.9279 7.16583C76.2425 6.48037 75.3131 6.09481 74.3438 6.09375Z" fill="#D90429"/>
<path d="M50.522 65.4095L48.3935 68.3535L48.1519 67.1616C48.0993 66.7497 47.8911 66.3737 47.5699 66.1106C47.3933 65.9663 47.1891 65.8597 46.9698 65.7971C46.7505 65.7346 46.5207 65.7176 46.2946 65.747L44.7699 65.9006L47.0911 62.649C46.2683 62.4829 45.4916 62.1393 44.8154 61.6422L41.7499 65.9362C41.5615 66.1924 41.4536 66.4989 41.44 66.8166C41.4263 67.1343 41.5075 67.4489 41.6731 67.7203C41.8413 67.9945 42.0854 68.2139 42.376 68.3519C42.6665 68.4899 42.9909 68.5405 43.3096 68.4975L45.8828 68.2381L46.3363 70.475C46.3739 70.7896 46.5032 71.0862 46.7082 71.3278C46.9132 71.5694 47.1847 71.7453 47.489 71.8337C47.6476 71.8817 47.8124 71.9062 47.9781 71.9063C48.2403 71.9064 48.4988 71.8448 48.7327 71.7266C48.9667 71.6083 49.1695 71.4366 49.3249 71.2255L53.7102 65.1595C53.0708 65.4189 52.3887 65.5572 51.6987 65.5673C51.3013 65.5661 50.9057 65.5131 50.522 65.4095ZM63.6534 61.6421C62.977 62.1392 62.2003 62.4828 61.3775 62.6488L63.6987 65.9006L62.1741 65.747C61.9479 65.7175 61.7181 65.7345 61.4988 65.797C61.2795 65.8596 61.0753 65.9663 60.8988 66.1106C60.5776 66.3736 60.3693 66.7497 60.3168 67.1615L60.0752 68.3529L57.9425 65.4034C56.8815 65.6662 55.764 65.5795 54.7562 65.1563L59.1498 71.2338C59.3049 71.443 59.507 71.6129 59.7398 71.7297C59.9725 71.8465 60.2295 71.907 60.49 71.9063C60.6559 71.9062 60.8209 71.8817 60.9797 71.8337C61.284 71.7453 61.5555 71.5694 61.7605 71.3278C61.9655 71.0862 62.0948 70.7897 62.1324 70.4751L62.5859 68.2381L65.1591 68.4976C65.4778 68.5408 65.8023 68.4903 66.0929 68.3523C66.3835 68.2143 66.6276 67.9947 66.7956 67.7204C66.9606 67.4512 67.0422 67.1391 67.03 66.8236C67.0178 66.5081 66.9124 66.2032 66.7271 65.9476L63.6534 61.6421ZM57.4365 63.0233C58.2362 62.6751 58.8676 62.0276 59.1956 61.2195C59.3076 60.9865 59.4454 60.7667 59.6063 60.5643C59.8535 60.4692 60.1109 60.4029 60.3733 60.3667C60.8075 60.3778 61.238 60.2834 61.6276 60.0915C62.0173 59.8997 62.3547 59.6161 62.6107 59.2653C62.8667 58.9144 63.0338 58.5066 63.0975 58.077C63.1613 57.6474 63.1199 57.2086 62.9769 56.7985C62.9297 56.5345 62.9133 56.2659 62.9281 55.9981C63.0681 55.7876 63.2309 55.5932 63.4137 55.4185C64.087 54.8524 64.5109 54.0443 64.5937 53.1684C64.5109 52.2926 64.087 51.4845 63.4137 50.9184C63.2323 50.7446 63.0701 50.5519 62.9298 50.3435C62.9133 50.0742 62.9291 49.8039 62.9769 49.5383C63.186 48.7027 63.0559 47.8182 62.615 47.0782C62.0436 46.4271 61.2376 46.0288 60.3733 45.9701C60.1123 45.9339 59.8562 45.8684 59.6098 45.7749C59.4471 45.5719 59.3079 45.3511 59.195 45.1167C58.8673 44.3086 58.2358 43.6612 57.436 43.3136C56.6034 43.1266 55.7307 43.2757 55.0074 43.7284C54.7633 43.8602 54.5036 43.9608 54.2344 44.0277C53.9651 43.9608 53.7054 43.8602 53.4613 43.7284C52.7377 43.276 51.8649 43.127 51.0322 43.3136C50.2325 43.6618 49.6011 44.3093 49.2731 45.1174C49.1611 45.3504 49.0233 45.5702 48.8624 45.7726C48.6152 45.8677 48.3578 45.934 48.0954 45.9701C47.2311 46.0285 46.4252 46.4267 45.8537 47.0776C45.4128 47.8179 45.2827 48.7025 45.4918 49.5383C45.539 49.8023 45.5554 50.071 45.5406 50.3387C45.4006 50.5492 45.2378 50.7436 45.055 50.9184C44.3817 51.4845 43.9578 52.2926 43.875 53.1684C43.9578 54.0443 44.3817 54.8524 45.055 55.4185C45.2364 55.5923 45.3986 55.785 45.5389 55.9934C45.5554 56.2627 45.5396 56.533 45.4918 56.7985C45.3489 57.2087 45.3076 57.6473 45.3714 58.0769C45.4352 58.5065 45.6023 58.9142 45.8583 59.2651C46.1143 59.6159 46.4516 59.8994 46.8412 60.0913C47.2308 60.2832 47.6612 60.3777 48.0954 60.3667C48.3564 60.403 48.6125 60.4684 48.8589 60.5619C49.0216 60.7649 49.1608 60.9857 49.2737 61.2201C49.6014 62.0283 50.2329 62.6757 51.0328 63.0233C51.2495 63.0936 51.4761 63.1292 51.704 63.1286C52.321 63.0873 52.9212 62.9097 53.4613 62.6085C53.7054 62.4766 53.9651 62.376 54.2344 62.3091C54.5036 62.376 54.7633 62.4766 55.0074 62.6085C55.731 63.0608 56.6038 63.2099 57.4365 63.0233ZM52.4211 60.4042C52.2159 60.5074 52.0042 60.597 51.7874 60.6726C51.6488 60.4757 51.5243 60.2693 51.4148 60.0549C51.189 59.4676 50.7979 58.9582 50.2888 58.5885C49.7796 58.2187 49.1743 58.0044 48.5459 57.9715C48.3105 57.9332 48.0781 57.8787 47.8502 57.8084C47.854 57.5732 47.8739 57.3386 47.9097 57.1062C48.0323 56.4882 48.0144 55.8506 47.8574 55.2406C47.6303 54.669 47.2767 54.1562 46.8231 53.7409C46.6445 53.5637 46.4807 53.3722 46.3333 53.1684C46.4807 52.9646 46.6445 52.7731 46.8231 52.5959C47.2767 52.1805 47.6303 51.6678 47.8574 51.0962C48.0144 50.4859 48.0323 49.8482 47.9097 49.23C47.8741 48.9975 47.8542 48.7629 47.8502 48.5278C48.0782 48.458 48.3106 48.4037 48.5459 48.3653C49.1744 48.3329 49.78 48.1188 50.2893 47.749C50.7985 47.3792 51.1895 46.8695 51.4148 46.2819C51.5242 46.0674 51.6487 45.861 51.7874 45.6642C52.0042 45.7398 52.2159 45.8294 52.4211 45.9326C52.9619 46.2803 53.5914 46.4652 54.2343 46.4652C54.8773 46.4652 55.5068 46.2803 56.0476 45.9326C56.2528 45.8294 56.4645 45.7398 56.6813 45.6642C56.8199 45.8611 56.9444 46.0675 57.0539 46.2819C57.2797 46.8692 57.6708 47.3786 58.1799 47.7483C58.6891 48.1181 59.2944 48.3324 59.9228 48.3653C60.1582 48.4036 60.3906 48.4581 60.6185 48.5284C60.6147 48.7635 60.5948 48.9982 60.559 49.2306C60.4364 49.8486 60.4543 50.4861 60.6113 51.0962C60.8384 51.6678 61.192 52.1805 61.6456 52.5959C61.8242 52.7731 61.988 52.9646 62.1354 53.1684C61.988 53.3722 61.8242 53.5637 61.6456 53.7409C61.192 54.1562 60.8384 54.669 60.6113 55.2406C60.4543 55.8509 60.4364 56.4886 60.559 57.1068C60.5946 57.3392 60.6145 57.5739 60.6185 57.809C60.3905 57.8788 60.1581 57.9331 59.9228 57.9715C59.2943 58.0039 58.6887 58.218 58.1794 58.5878C57.6702 58.9576 57.2792 59.4673 57.0539 60.0549C56.9445 60.2694 56.82 60.4758 56.6813 60.6726C56.4645 60.597 56.2528 60.5074 56.0476 60.4042C55.5068 60.0565 54.8773 59.8716 54.2343 59.8716C53.5914 59.8716 52.9619 60.0565 52.4211 60.4042Z" fill="#2B2D42"/>
<path d="M58.5 53.1684C58.5 52.3248 58.2498 51.5001 57.7811 50.7986C57.3124 50.0971 56.6462 49.5504 55.8667 49.2275C55.0873 48.9047 54.2296 48.8202 53.4022 48.9848C52.5747 49.1494 51.8147 49.5557 51.2181 50.1522C50.6216 50.7488 50.2153 51.5088 50.0507 52.3363C49.8861 53.1637 49.9706 54.0214 50.2935 54.8009C50.6163 55.5803 51.163 56.2465 51.8645 56.7152C52.566 57.1839 53.3907 57.4341 54.2344 57.4341C55.3653 57.4327 56.4495 56.9829 57.2491 56.1832C58.0488 55.3835 58.4986 54.2993 58.5 53.1684ZM54.2344 54.9965C53.8728 54.9965 53.5194 54.8893 53.2187 54.6885C52.9181 54.4876 52.6838 54.2021 52.5454 53.868C52.407 53.534 52.3708 53.1664 52.4414 52.8118C52.5119 52.4572 52.686 52.1314 52.9417 51.8757C53.1974 51.6201 53.5231 51.446 53.8777 51.3754C54.2323 51.3049 54.5999 51.3411 54.934 51.4795C55.268 51.6178 55.5535 51.8521 55.7544 52.1528C55.9553 52.4534 56.0625 52.8069 56.0625 53.1684C56.062 53.6531 55.8692 54.1178 55.5265 54.4605C55.1838 54.8033 54.7191 54.996 54.2344 54.9965Z" fill="#D90429"/>
<path d="M70.6875 58.5005C71.3338 58.4999 71.9534 58.2429 72.4104 57.7859C72.8673 57.3289 73.1244 56.7093 73.125 56.063V13.4064C73.1244 12.7601 72.8673 12.1405 72.4104 11.6835C71.9534 11.2265 71.3338 10.9695 70.6875 10.9689H7.3125C6.66623 10.9695 6.04662 11.2265 5.58964 11.6835C5.13266 12.1405 4.87565 12.7601 4.875 13.4064V56.063C4.87565 56.7093 5.13266 57.3289 5.58964 57.7859C6.04662 58.2428 6.66623 58.4999 7.3125 58.5005H43.0264C42.9616 57.9439 42.9638 57.3815 43.0329 56.8253C42.8112 56.5839 42.6042 56.3293 42.4131 56.063H7.3125V22.8994L16.7054 13.5063C16.7344 13.4745 16.7617 13.4411 16.7871 13.4064H61.2129C61.2383 13.4411 61.2655 13.4745 61.2945 13.5063L70.6879 22.8998L70.6893 56.063H66.0554C65.8644 56.3293 65.6574 56.5838 65.4358 56.8253C65.5049 57.3814 65.5072 57.9438 65.4424 58.5005L70.6875 58.5005ZM7.3125 19.4526V13.4063H13.3586L7.3125 19.4526ZM64.6414 13.4063H70.6875L70.6878 19.4528L64.6414 13.4063Z" fill="#2B2D42"/>
</svg>