<svg width="82" height="82" viewBox="0 0 82 82" fill="none" xmlns="http://www.w3.org/2000/svg">
<path d="M7.59277 1.51855H80.4817V74.4074H7.59277V1.51855Z" fill="white"/>
<g style="mix-blend-mode:multiply" opacity="0.1">
<path d="M75.9261 1.51855V72.8889H7.59277V74.4074H80.4817V1.51855H75.9261Z" fill="black"/>
</g>
<path d="M16.7041 9.77917H34.9263V25.8436H16.7041V9.77917Z" fill="#D90429"/>
<g style="mix-blend-mode:multiply" opacity="0.1">
<path d="M30.3708 9.77917V24.3266H16.7041V25.8451H34.9263V9.77917H30.3708Z" fill="black"/>
</g>
<path d="M24.2961 57.7037C30.586 57.7037 35.685 52.6047 35.685 46.3148C35.685 40.0249 30.586 34.9259 24.2961 34.9259C18.0062 34.9259 12.9072 40.0249 12.9072 46.3148C12.9072 52.6047 18.0062 57.7037 24.2961 57.7037Z" fill="#2B2D42"/>
<g style="mix-blend-mode:multiply" opacity="0.1">
<path d="M25.5116 34.9927C27.6591 36.2624 29.3303 38.2021 30.2684 40.5138C31.2065 42.8254 31.3596 45.3812 30.7041 47.7883C30.0487 50.1955 28.621 52.3208 26.6404 53.8378C24.6598 55.3548 22.236 56.1794 19.7412 56.1851C19.3354 56.1842 18.9299 56.1619 18.5264 56.1183C19.991 56.9862 21.6316 57.5146 23.3275 57.6648C25.0233 57.815 26.7313 57.5831 28.3257 56.9861C29.9201 56.3891 31.3603 55.4422 32.5405 54.2152C33.7207 52.9881 34.6107 51.5121 35.1452 49.8957C35.6797 48.2793 35.845 46.5636 35.6289 44.8749C35.4128 43.1861 34.8209 41.5673 33.8966 40.1376C32.9724 38.7078 31.7394 37.5034 30.2883 36.6131C28.8371 35.7227 27.2049 35.169 25.5116 34.9927Z" fill="black"/>
</g>
<path d="M47.0741 80.4815H1.51855C1.51855 74.4405 3.91835 68.6469 8.19001 64.3752C12.4617 60.1035 18.2553 57.7037 24.2963 57.7037C30.3374 57.7037 36.131 60.1035 40.4027 64.3752C44.6743 68.6469 47.0741 74.4405 47.0741 80.4815Z" fill="#2B2D42"/>
<g style="mix-blend-mode:multiply" opacity="0.1">
<path d="M47.0741 80.4816C47.0706 75.2822 45.2892 70.2403 42.0254 66.1929C38.7616 62.1455 34.2118 59.336 29.1313 58.2307C33.1187 60.0351 36.5019 62.95 38.876 66.6267C41.2502 70.3035 42.5148 74.5864 42.5186 78.963H1.596C1.56259 79.4672 1.51855 79.9683 1.51855 80.4816H47.0741Z" fill="black"/>
</g>
<path d="M80.4815 0H33.4074C33.0047 0 32.6184 0.159987 32.3337 0.444764C32.0489 0.729542 31.8889 1.11578 31.8889 1.51852C31.8889 1.92125 32.0489 2.3075 32.3337 2.59227C32.6184 2.87705 33.0047 3.03704 33.4074 3.03704H78.963V72.8889H54.6667C54.2639 72.8889 53.8777 73.0489 53.5929 73.3337C53.3081 73.6184 53.1482 74.0047 53.1482 74.4074C53.1482 74.8101 53.3081 75.1964 53.5929 75.4812C53.8777 75.7659 54.2639 75.9259 54.6667 75.9259H80.4815C80.8842 75.9259 81.2705 75.7659 81.5552 75.4812C81.84 75.1964 82 74.8101 82 74.4074V1.51852C82 1.11578 81.84 0.729542 81.5552 0.444764C81.2705 0.159987 80.8842 0 80.4815 0ZM47.3778 72.9193C46.1491 69.1923 44.0385 65.8171 41.2255 63.0808C38.4125 60.3444 34.9803 58.3279 31.2207 57.2026H31.2056C32.8909 56.1356 34.3061 54.6925 35.3399 52.9866C36.3738 51.2807 36.9982 49.3584 37.1641 47.3706C37.33 45.3828 37.033 43.3836 36.2963 41.5299C35.5596 39.6762 34.4033 38.0185 32.9181 36.6868C31.433 35.3552 29.6594 34.3859 27.7366 33.855C25.8138 33.3241 23.7942 33.2461 21.8362 33.6271C19.8782 34.0081 18.0351 34.8377 16.4517 36.0508C14.8682 37.2639 13.5875 38.8275 12.71 40.6189C12.5322 40.9813 12.5057 41.3996 12.6362 41.7816C12.7668 42.1636 13.0438 42.4781 13.4062 42.6559C13.7687 42.8338 14.187 42.8603 14.569 42.7297C14.951 42.5992 15.2655 42.3222 15.4433 41.9597C16.4485 39.9161 18.1294 38.283 20.201 37.3372C22.2727 36.3913 24.6078 36.191 26.8103 36.7701C29.0128 37.3492 30.9473 38.6722 32.2859 40.5146C33.6244 42.3571 34.2846 44.6058 34.1546 46.8795C34.0246 49.1532 33.1124 51.3119 31.5725 52.9898C30.0327 54.6678 27.96 55.7616 25.7058 56.0858C23.4516 56.4101 21.1546 55.9449 19.2042 54.7691C17.2539 53.5932 15.7701 51.7791 15.0045 49.6343C14.8603 49.2672 14.579 48.9707 14.2201 48.8073C13.8612 48.6439 13.4528 48.6266 13.0813 48.759C12.7099 48.8913 12.4045 49.163 12.2297 49.5166C12.055 49.8701 12.0247 50.2777 12.1451 50.6532C13.1235 53.3632 14.9833 55.6663 17.4265 57.1935L17.3946 57.2026C14.3764 58.088 11.5617 59.5585 9.11112 61.5304V3.03704H25.8148C26.2176 3.03704 26.6038 2.87705 26.8886 2.59227C27.1734 2.3075 27.3333 1.92125 27.3333 1.51852C27.3333 1.11578 27.1734 0.729542 26.8886 0.444764C26.6038 0.159987 26.2176 0 25.8148 0H7.5926C7.18986 0 6.80362 0.159987 6.51884 0.444764C6.23407 0.729542 6.07408 1.11578 6.07408 1.51852V64.4459C2.1568 68.8686 -0.00410198 74.5734 5.84588e-06 80.4815C5.84588e-06 80.8842 0.159992 81.2705 0.44477 81.5552C0.729547 81.84 1.11579 82 1.51852 82H13.6667C14.0694 82 14.4556 81.84 14.7404 81.5552C15.0252 81.2705 15.1852 80.8842 15.1852 80.4815C15.1852 80.0788 15.0252 79.6925 14.7404 79.4077C14.4556 79.1229 14.0694 78.963 13.6667 78.963H3.09778C3.33061 75.6381 4.35077 72.4163 6.07408 69.5633C8.11986 66.141 11.0878 63.3637 14.6382 61.5493C18.1886 59.7349 22.1781 58.9566 26.1502 59.3036C30.1223 59.6506 33.9164 61.1088 37.0985 63.5113C40.2805 65.9138 42.7219 69.1637 44.1433 72.8889C44.5267 73.8756 44.8313 74.8911 45.0544 75.9259C45.2712 76.9269 45.4184 77.9417 45.4948 78.963H21.2593C20.8565 78.963 20.4703 79.1229 20.1855 79.4077C19.9007 79.6925 19.7407 80.0788 19.7407 80.4815C19.7407 80.8842 19.9007 81.2705 20.1855 81.5552C20.4703 81.84 20.8565 82 21.2593 82H47.0741C47.4768 82 47.8631 81.84 48.1478 81.5552C48.4326 81.2705 48.5926 80.8842 48.5926 80.4815C48.5985 78.8226 48.4254 77.168 48.0763 75.5463C48.2396 75.4051 48.3703 75.2301 48.4594 75.0335C48.5486 74.8369 48.594 74.6233 48.5926 74.4074C48.5927 74.0573 48.4718 73.718 48.2504 73.4468C48.029 73.1756 47.7208 72.9893 47.3778 72.9193Z" fill="#D90429"/>
<path d="M34.9263 27.3636H16.7041C16.3013 27.3636 15.9151 27.2036 15.6303 26.9188C15.3455 26.634 15.1855 26.2478 15.1855 25.8451V18.2525C15.1855 17.8497 15.3455 17.4635 15.6303 17.1787C15.9151 16.8939 16.3013 16.734 16.7041 16.734C17.1068 16.734 17.493 16.8939 17.7778 17.1787C18.0626 17.4635 18.2226 17.8497 18.2226 18.2525V24.3265H33.4078V11.2977H18.0814C17.9358 11.6112 17.6876 11.8657 17.3777 12.0191C17.0679 12.1724 16.7151 12.2155 16.3775 12.1411C16.0398 12.0668 15.7377 11.8795 15.521 11.6101C15.3043 11.3408 15.1859 11.0056 15.1855 10.6599V9.77914C15.1855 9.3764 15.3455 8.99016 15.6303 8.70538C15.9151 8.42061 16.3013 8.26062 16.7041 8.26062H34.9263C35.329 8.26062 35.7153 8.42061 36 8.70538C36.2848 8.99016 36.4448 9.3764 36.4448 9.77914V25.8451C36.4448 26.2478 36.2848 26.634 36 26.9188C35.7153 27.2036 35.329 27.3636 34.9263 27.3636ZM70.4596 40.6962H44.294C43.8913 40.6962 43.5051 40.5362 43.2203 40.2514C42.9355 39.9666 42.7755 39.5804 42.7755 39.1777C42.7755 38.7749 42.9355 38.3887 43.2203 38.1039C43.5051 37.8191 43.8913 37.6591 44.294 37.6591H70.4596C70.8624 37.6591 71.2486 37.8191 71.5334 38.1039C71.8182 38.3887 71.9781 38.7749 71.9781 39.1777C71.9781 39.5804 71.8182 39.9666 71.5334 40.2514C71.2486 40.5362 70.8624 40.6962 70.4596 40.6962ZM70.4596 46.0444H44.294C43.8913 46.0444 43.5051 45.8844 43.2203 45.5996C42.9355 45.3149 42.7755 44.9286 42.7755 44.5259C42.7755 44.1231 42.9355 43.7369 43.2203 43.4521C43.5051 43.1674 43.8913 43.0074 44.294 43.0074H70.4596C70.8624 43.0074 71.2486 43.1674 71.5334 43.4521C71.8182 43.7369 71.9781 44.1231 71.9781 44.5259C71.9781 44.9286 71.8182 45.3149 71.5334 45.5996C71.2486 45.8844 70.8624 46.0444 70.4596 46.0444ZM70.4596 51.4002H44.294C43.8913 51.4002 43.5051 51.2402 43.2203 50.9554C42.9355 50.6707 42.7755 50.2844 42.7755 49.8817C42.7755 49.479 42.9355 49.0927 43.2203 48.8079C43.5051 48.5232 43.8913 48.3632 44.294 48.3632H70.4596C70.8624 48.3632 71.2486 48.5232 71.5334 48.8079C71.8182 49.0927 71.9781 49.479 71.9781 49.8817C71.9781 50.2844 71.8182 50.6707 71.5334 50.9554C71.2486 51.2402 70.8624 51.4002 70.4596 51.4002ZM70.4596 56.7545H44.294C43.8913 56.7545 43.5051 56.5945 43.2203 56.3097C42.9355 56.025 42.7755 55.6387 42.7755 55.236C42.7755 54.8333 42.9355 54.447 43.2203 54.1622C43.5051 53.8775 43.8913 53.7175 44.294 53.7175H70.4596C70.8624 53.7175 71.2486 53.8775 71.5334 54.1622C71.8182 54.447 71.9781 54.8333 71.9781 55.236C71.9781 55.6387 71.8182 56.025 71.5334 56.3097C71.2486 56.5945 70.8624 56.7545 70.4596 56.7545ZM70.4596 11.2977H44.294C43.8913 11.2977 43.5051 11.1377 43.2203 10.8529C42.9355 10.5681 42.7755 10.1819 42.7755 9.77914C42.7755 9.3764 42.9355 8.99016 43.2203 8.70538C43.5051 8.42061 43.8913 8.26062 44.294 8.26062H70.4596C70.8624 8.26062 71.2486 8.42061 71.5334 8.70538C71.8182 8.99016 71.9781 9.3764 71.9781 9.77914C71.9781 10.1819 71.8182 10.5681 71.5334 10.8529C71.2486 11.1377 70.8624 11.2977 70.4596 11.2977ZM70.4596 16.6535H44.294C43.8913 16.6535 43.5051 16.4935 43.2203 16.2087C42.9355 15.9239 42.7755 15.5377 42.7755 15.135C42.7755 14.7322 42.9355 14.346 43.2203 14.0612C43.5051 13.7764 43.8913 13.6164 44.294 13.6164H70.4596C70.8624 13.6164 71.2486 13.7764 71.5334 14.0612C71.8182 14.346 71.9781 14.7322 71.9781 15.135C71.9781 15.5377 71.8182 15.9239 71.5334 16.2087C71.2486 16.4935 70.8624 16.6535 70.4596 16.6535ZM70.4596 22.0078H44.294C43.8913 22.0078 43.5051 21.8478 43.2203 21.563C42.9355 21.2782 42.7755 20.892 42.7755 20.4893C42.7755 20.0865 42.9355 19.7003 43.2203 19.4155C43.5051 19.1307 43.8913 18.9707 44.294 18.9707H70.4596C70.8624 18.9707 71.2486 19.1307 71.5334 19.4155C71.8182 19.7003 71.9781 20.0865 71.9781 20.4893C71.9781 20.892 71.8182 21.2782 71.5334 21.563C71.2486 21.8478 70.8624 22.0078 70.4596 22.0078ZM70.4596 27.3636H44.294C43.8913 27.3636 43.5051 27.2036 43.2203 26.9188C42.9355 26.634 42.7755 26.2478 42.7755 25.8451C42.7755 25.4423 42.9355 25.0561 43.2203 24.7713C43.5051 24.4865 43.8913 24.3265 44.294 24.3265H70.4596C70.8624 24.3265 71.2486 24.4865 71.5334 24.7713C71.8182 25.0561 71.9781 25.4423 71.9781 25.8451C71.9781 26.2478 71.8182 26.634 71.5334 26.9188C71.2486 27.2036 70.8624 27.3636 70.4596 27.3636Z" fill="#2B2D42"/>
</svg>