<svg width="82" height="82" viewBox="0 0 82 82" fill="none" xmlns="http://www.w3.org/2000/svg">
<path d="M42.409 19.0266V11.5312C42.409 10.8266 41.8324 10.25 41.1277 10.25C40.423 10.25 39.8465 10.8266 39.8465 11.5312V19.0266C38.8215 19.5391 38.0527 20.5641 38.0527 21.7812C38.0527 23.4469 39.398 24.8562 41.1277 24.8562C42.8574 24.8562 44.2027 23.4469 44.2027 21.7812C44.2027 20.5641 43.498 19.475 42.409 19.0266ZM61.6277 19.0266V11.5312C61.6277 10.8266 61.0512 10.25 60.3465 10.25C59.6418 10.25 59.0652 10.8266 59.0652 11.5312V19.0266C58.0402 19.5391 57.2715 20.5641 57.2715 21.7812C57.2715 23.4469 58.6168 24.8562 60.3465 24.8562C62.0762 24.8562 63.4215 23.4469 63.4215 21.7812C63.4215 20.5641 62.7168 19.475 61.6277 19.0266ZM24.4715 14.7344H38.5652V17.2969H24.4715V14.7344ZM43.6902 14.7344H57.784V17.2969H43.6902V14.7344ZM23.1902 19.0266V11.5312C23.1902 10.8266 22.6137 10.25 21.909 10.25C21.2043 10.25 20.6277 10.8266 20.6277 11.5312V19.0266C19.6027 19.5391 18.834 20.5641 18.834 21.7812C18.834 23.4469 20.1793 24.8562 21.909 24.8562C23.6387 24.8562 24.984 23.4469 24.984 21.7812C24.984 20.5641 24.2793 19.475 23.1902 19.0266Z" fill="#2B2D42"/>
<path d="M71.1094 14.7344H62.7812V17.2969H71.1094C73.2234 17.2969 74.9531 19.0266 74.9531 21.1406V28.1875H7.04688V21.1406C7.04688 19.0266 8.77656 17.2969 10.8906 17.2969H19.2188V14.7344H10.8906C7.36719 14.7344 4.48438 17.6172 4.48438 21.1406V63.4219C4.48438 66.9453 7.36719 69.8281 10.8906 69.8281H71.1094C74.6328 69.8281 77.5156 66.9453 77.5156 63.4219V21.1406C77.5156 17.6172 74.6328 14.7344 71.1094 14.7344ZM71.1094 67.2656H10.8906C8.77656 67.2656 7.04688 65.5359 7.04688 63.4219V30.75H74.9531V63.4219C74.9531 65.5359 73.2234 67.2656 71.1094 67.2656Z" fill="#D90429"/>
<path d="M32.6717 40.5516C33.8392 40.5516 34.7857 39.6051 34.7857 38.4375C34.7857 37.27 33.8392 36.3235 32.6717 36.3235C31.5041 36.3235 30.5576 37.27 30.5576 38.4375C30.5576 39.6051 31.5041 40.5516 32.6717 40.5516Z" fill="#2B2D42"/>
<path d="M24.8562 40.5516C26.0238 40.5516 26.9703 39.6051 26.9703 38.4375C26.9703 37.27 26.0238 36.3235 24.8562 36.3235C23.6887 36.3235 22.7422 37.27 22.7422 38.4375C22.7422 39.6051 23.6887 40.5516 24.8562 40.5516Z" fill="#2B2D42"/>
<path d="M63.9344 40.5516C65.1019 40.5516 66.0484 39.6051 66.0484 38.4375C66.0484 37.27 65.1019 36.3235 63.9344 36.3235C62.7668 36.3235 61.8203 37.27 61.8203 38.4375C61.8203 39.6051 62.7668 40.5516 63.9344 40.5516Z" fill="#2B2D42"/>
<path d="M17.0408 47.6625C18.2084 47.6625 19.1549 46.716 19.1549 45.5484C19.1549 44.3808 18.2084 43.4343 17.0408 43.4343C15.8733 43.4343 14.9268 44.3808 14.9268 45.5484C14.9268 46.716 15.8733 47.6625 17.0408 47.6625Z" fill="#2B2D42"/>
<path d="M24.8562 47.6625C26.0238 47.6625 26.9703 46.716 26.9703 45.5484C26.9703 44.3808 26.0238 43.4343 24.8562 43.4343C23.6887 43.4343 22.7422 44.3808 22.7422 45.5484C22.7422 46.716 23.6887 47.6625 24.8562 47.6625Z" fill="#2B2D42"/>
<path d="M32.6717 47.6625C33.8392 47.6625 34.7857 46.716 34.7857 45.5484C34.7857 44.3808 33.8392 43.4343 32.6717 43.4343C31.5041 43.4343 30.5576 44.3808 30.5576 45.5484C30.5576 46.716 31.5041 47.6625 32.6717 47.6625Z" fill="#2B2D42"/>
<path d="M40.4871 47.6625C41.6547 47.6625 42.6012 46.716 42.6012 45.5484C42.6012 44.3808 41.6547 43.4343 40.4871 43.4343C39.3195 43.4343 38.373 44.3808 38.373 45.5484C38.373 46.716 39.3195 47.6625 40.4871 47.6625Z" fill="#2B2D42"/>
<path d="M48.3035 47.6625C49.4711 47.6625 50.4176 46.716 50.4176 45.5484C50.4176 44.3808 49.4711 43.4343 48.3035 43.4343C47.136 43.4343 46.1895 44.3808 46.1895 45.5484C46.1895 46.716 47.136 47.6625 48.3035 47.6625Z" fill="#2B2D42"/>
<path d="M56.0545 47.6625C57.2221 47.6625 58.1686 46.716 58.1686 45.5484C58.1686 44.3808 57.2221 43.4343 56.0545 43.4343C54.8869 43.4343 53.9404 44.3808 53.9404 45.5484C53.9404 46.716 54.8869 47.6625 56.0545 47.6625Z" fill="#2B2D42"/>
<path d="M24.8562 54.8375C26.0238 54.8375 26.9703 53.891 26.9703 52.7234C26.9703 51.5559 26.0238 50.6094 24.8562 50.6094C23.6887 50.6094 22.7422 51.5559 22.7422 52.7234C22.7422 53.891 23.6887 54.8375 24.8562 54.8375Z" fill="#2B2D42"/>
<path d="M32.6717 54.8375C33.8392 54.8375 34.7857 53.891 34.7857 52.7234C34.7857 51.5559 33.8392 50.6094 32.6717 50.6094C31.5041 50.6094 30.5576 51.5559 30.5576 52.7234C30.5576 53.891 31.5041 54.8375 32.6717 54.8375Z" fill="#2B2D42"/>
<path d="M40.4871 54.8375C41.6547 54.8375 42.6012 53.891 42.6012 52.7234C42.6012 51.5559 41.6547 50.6094 40.4871 50.6094C39.3195 50.6094 38.373 51.5559 38.373 52.7234C38.373 53.891 39.3195 54.8375 40.4871 54.8375Z" fill="#2B2D42"/>
<path d="M48.3035 54.8375C49.4711 54.8375 50.4176 53.891 50.4176 52.7234C50.4176 51.5559 49.4711 50.6094 48.3035 50.6094C47.136 50.6094 46.1895 51.5559 46.1895 52.7234C46.1895 53.891 47.136 54.8375 48.3035 54.8375Z" fill="#2B2D42"/>
<path d="M56.0545 54.8375C57.2221 54.8375 58.1686 53.891 58.1686 52.7234C58.1686 51.5559 57.2221 50.6094 56.0545 50.6094C54.8869 50.6094 53.9404 51.5559 53.9404 52.7234C53.9404 53.891 54.8869 54.8375 56.0545 54.8375Z" fill="#2B2D42"/>
<path d="M40.4871 40.7437C41.6547 40.7437 42.6012 39.7973 42.6012 38.6297C42.6012 37.4621 41.6547 36.5156 40.4871 36.5156C39.3195 36.5156 38.373 37.4621 38.373 38.6297C38.373 39.7973 39.3195 40.7437 40.4871 40.7437Z" fill="#2B2D42"/>
<path d="M48.3035 40.7437C49.4711 40.7437 50.4176 39.7973 50.4176 38.6297C50.4176 37.4621 49.4711 36.5156 48.3035 36.5156C47.136 36.5156 46.1895 37.4621 46.1895 38.6297C46.1895 39.7973 47.136 40.7437 48.3035 40.7437Z" fill="#2B2D42"/>
<path d="M56.0545 40.7437C57.2221 40.7437 58.1686 39.7973 58.1686 38.6297C58.1686 37.4621 57.2221 36.5156 56.0545 36.5156C54.8869 36.5156 53.9404 37.4621 53.9404 38.6297C53.9404 39.7973 54.8869 40.7437 56.0545 40.7437Z" fill="#2B2D42"/>
<path d="M63.8699 47.6625C65.0375 47.6625 65.984 46.716 65.984 45.5484C65.984 44.3808 65.0375 43.4343 63.8699 43.4343C62.7024 43.4343 61.7559 44.3808 61.7559 45.5484C61.7559 46.716 62.7024 47.6625 63.8699 47.6625Z" fill="#2B2D42"/>
<path d="M63.9344 54.8375C65.1019 54.8375 66.0484 53.891 66.0484 52.7234C66.0484 51.5559 65.1019 50.6094 63.9344 50.6094C62.7668 50.6094 61.8203 51.5559 61.8203 52.7234C61.8203 53.891 62.7668 54.8375 63.9344 54.8375Z" fill="#2B2D42"/>
<path d="M17.0408 54.5813C18.2084 54.5813 19.1549 53.6348 19.1549 52.4672C19.1549 51.2996 18.2084 50.3531 17.0408 50.3531C15.8733 50.3531 14.9268 51.2996 14.9268 52.4672C14.9268 53.6348 15.8733 54.5813 17.0408 54.5813Z" fill="#2B2D42"/>
<path d="M17.0408 61.5641C18.2084 61.5641 19.1549 60.6176 19.1549 59.45C19.1549 58.2824 18.2084 57.3359 17.0408 57.3359C15.8733 57.3359 14.9268 58.2824 14.9268 59.45C14.9268 60.6176 15.8733 61.5641 17.0408 61.5641Z" fill="#2B2D42"/>
<path d="M24.8562 61.5641C26.0238 61.5641 26.9703 60.6176 26.9703 59.45C26.9703 58.2824 26.0238 57.3359 24.8562 57.3359C23.6887 57.3359 22.7422 58.2824 22.7422 59.45C22.7422 60.6176 23.6887 61.5641 24.8562 61.5641Z" fill="#2B2D42"/>
<path d="M32.6717 61.5641C33.8392 61.5641 34.7857 60.6176 34.7857 59.45C34.7857 58.2824 33.8392 57.3359 32.6717 57.3359C31.5041 57.3359 30.5576 58.2824 30.5576 59.45C30.5576 60.6176 31.5041 61.5641 32.6717 61.5641Z" fill="#2B2D42"/>
<path d="M40.4871 61.5641C41.6547 61.5641 42.6012 60.6176 42.6012 59.45C42.6012 58.2824 41.6547 57.3359 40.4871 57.3359C39.3195 57.3359 38.373 58.2824 38.373 59.45C38.373 60.6176 39.3195 61.5641 40.4871 61.5641Z" fill="#2B2D42"/>
</svg>