<svg width="611" height="611" viewBox="0 0 611 611" fill="none" xmlns="http://www.w3.org/2000/svg">
<path d="M195.104 66.7423C259.768 24.1282 350.638 32.8143 407.803 96.0673C439.059 130.663 451.754 178.252 484.197 212.105C520.723 250.191 564.377 287.237 580.932 339.205C598.527 394.44 583.085 457.767 543.738 500.01C495.853 551.385 425.473 535.943 358.953 535.126C86.5644 531.711 -115.89 349.896 141.725 125.764C163.255 106.906 173.723 80.7738 195.104 66.7423Z" fill="url(#paint0_linear_253_85)"/>
<path d="M532.008 230.74C530.597 231.185 523.173 236.679 523.173 236.679L514.413 242.321L514.041 239.129C514.041 239.129 510.478 232.002 506.098 232.299C506.098 232.299 511.369 238.758 512.037 243.064C512.705 247.37 513.002 250.339 513.002 250.339L507.211 256.056L516.863 268.454L539.506 251.527C539.506 251.527 533.418 230.294 532.008 230.74Z" fill="#DBA17B"/>
<path d="M536.536 230.74L532.601 262.292L516.862 262.663L513.076 230.74H536.536Z" fill="#FFBE55"/>
<path d="M539.952 231.185H510.256V228.067H513.077V223.167L537.205 226.731L537.279 228.512H539.952V231.556" fill="#0E538C"/>
<path d="M537.947 252.121C543.441 252.641 536.536 237.57 536.536 237.57C536.536 237.57 521.688 236.53 521.54 237.347C521.391 238.164 521.465 239.5 522.653 239.797C523.841 240.094 533.121 241.356 533.121 241.356C533.121 241.356 523.47 241.802 523.618 242.841C523.915 244.4 525.029 244.548 527.924 244.994C530.374 245.365 535.72 245.514 535.72 245.514C535.72 245.514 525.549 245.736 525.771 246.404C525.994 247.073 525.326 249.151 528.815 248.632C536.759 247.592 537.947 252.121 537.947 252.121Z" fill="#DBA17B"/>
<path d="M471.131 312.776C471.131 312.776 486.202 419.311 479.223 441.954C472.244 464.598 469.497 485.014 469.497 485.014L434.456 474.769C434.456 474.769 446.037 421.464 447.819 411.219C449.527 400.973 431.635 317.75 431.635 317.75L471.131 312.776Z" fill="#0B4870"/>
<path d="M454.575 320.422L438.02 491.695H404.537C404.537 491.695 415.376 310.4 413.446 308.841C411.516 307.43 454.575 320.422 454.575 320.422Z" fill="#0B4870"/>
<path d="M467.789 216.04C467.789 216.04 471.353 273.502 479 271.424C486.721 269.419 507.36 254.422 507.36 254.422L519.906 268.231C519.906 268.231 481.672 310.771 465.933 293.399C450.269 275.952 467.789 216.04 467.789 216.04Z" fill="#0B4870"/>
<path d="M457.471 520.352L459.772 508.771L435.347 498.971L431.486 516.195L432.823 516.417C438.316 518.942 464.969 531.266 469.126 531.637C473.729 532.082 457.471 520.352 457.471 520.352Z" fill="#0B4870"/>
<path d="M399.414 351.752L402.087 355.612C402.087 355.612 403.349 358.211 406.467 362.146C407.284 363.185 408.249 364.076 409.363 364.744C410.699 365.561 412.555 366.6 413.743 366.897C415.228 367.194 415.524 369.124 414.262 369.718C413 370.238 408.991 369.495 405.131 366.526C401.27 363.63 403.052 370.98 403.72 373.727C404.314 376.4 405.799 384.863 405.131 385.754C404.166 387.016 402.607 386.125 402.087 383.453C401.567 380.706 399.34 372.688 397.929 373.133C396.519 373.504 399.785 387.239 399.785 387.239C399.785 387.239 400.973 390.06 399.34 390.58C396.445 391.471 393.995 376.622 393.846 375.212C393.698 374.247 392.139 374.618 392.361 375.657C392.584 376.771 395.925 389.243 393.03 390.209C390.728 390.951 390.951 378.033 388.798 375.806C386.645 373.579 389.689 385.606 387.462 386.2C386.645 386.422 385.977 386.496 385.234 379.295C384.492 371.945 385.68 351.826 385.68 351.826L399.637 351.975" fill="#FFE3CA"/>
<path d="M447.893 196.738C447.597 194.436 448.784 184.859 448.784 184.859C448.784 184.859 457.545 184.191 458.361 175.579C459.178 166.893 459.252 146.848 459.252 146.848L443.588 138.533L425.621 151.228L421.538 160.731L426.883 183.374V194.733L447.893 196.738Z" fill="#DBA17B"/>
<path d="M448.785 184.859C448.785 184.859 442.92 184.711 437.426 180.627C437.426 180.627 439.801 187.086 448.562 187.012L448.785 184.859Z" fill="#C68C6B"/>
<path d="M421.835 170.234C424.211 175.505 425.621 183.226 425.621 183.226C426.884 185.601 427.329 178.029 427.329 178.029C427.329 178.029 428.443 170.753 427.403 167.932C427.403 167.932 422.949 169.343 421.984 161.399C421.464 157.464 427.403 155.608 429.037 160.36L432.749 160.731C432.749 160.731 433.046 145.883 441.583 148.63C441.583 148.63 447.745 152.416 451.457 150.114C455.169 147.813 454.872 146.996 454.872 146.996C454.872 146.996 456.654 150.931 461.405 148.333C466.157 145.734 466.751 141.206 465.117 139.053C464.152 137.791 463.261 136.38 461.702 136.083C460.143 135.786 458.436 136.454 457.471 137.642C458.659 135.935 457.842 133.41 456.06 132.222C454.353 131.109 452.051 131.183 450.121 131.926C448.191 132.668 446.557 134.004 444.998 135.341C443.885 132.222 440.544 129.995 437.277 130.292C433.936 130.589 431.041 133.262 430.447 136.528C428.665 134.301 425.25 133.782 422.652 135.044C420.053 136.306 418.42 138.978 417.9 141.8C417.381 144.621 417.975 147.516 419.088 150.189C417.084 149.075 414.337 149.892 413.001 151.748C411.664 153.604 411.664 156.202 412.629 158.281C413.594 160.36 415.451 161.919 417.455 162.958C415.97 164.146 415.451 166.522 416.416 168.229C417.381 169.937 419.608 170.828 421.39 170.159" fill="#0E538C"/>
<path d="M391.842 219.529C391.842 219.529 397.855 191.838 426.883 194.733C453.461 197.406 453.461 197.406 453.461 197.406C453.461 197.406 471.725 205.127 469.126 226.879C466.602 248.632 465.34 268.528 466.008 272.314C466.676 276.175 473.061 310.4 471.131 312.776C451.977 336.087 403.052 298.893 403.052 298.893L391.842 219.529Z" fill="#58FF55"/>
<path d="M426.883 194.733L420.127 356.503L400.008 345.59L402.087 202.083C402.087 202.083 407.506 192.803 426.883 194.733Z" fill="#0E538C"/>
<path d="M384.938 354.647L391.842 219.455C393.995 211.14 398.598 204.756 404.537 199.41V356.429L384.938 354.647Z" fill="#0E538C"/>
<path d="M447.894 196.738C447.894 196.738 466.008 205.721 465.192 236.085C464.301 266.449 476.105 352.272 476.105 352.272L491.25 349.228C491.25 349.228 473.729 267.86 472.987 253.606C472.244 239.055 473.507 218.49 463.707 204.31C456.654 194.139 447.894 196.738 447.894 196.738Z" fill="#0E538C"/>
<path d="M426.884 194.733C426.884 194.733 420.944 208.096 421.538 212.922C422.132 217.822 424.211 228.067 424.211 228.067C424.211 228.067 419.831 230.74 420.202 233.041C420.499 235.343 423.988 271.721 423.988 271.721L426.884 194.733Z" fill="#0B4870"/>
<path d="M404.537 356.503C406.393 323.837 405.948 260.436 407.804 227.696L404.537 356.503Z" fill="#0B4870"/>
<path d="M457.619 507.954C457.322 507.806 463.781 483.38 463.781 483.38L442.326 477.144L437.797 500.01L457.619 507.954Z" fill="#DBA17B"/>
<path d="M432.6 491.77H408.175V510.924H432.6V491.77Z" fill="#DBA17B"/>
<path d="M434.975 521.317L432.748 509.736H406.393L409.139 526.811L410.55 526.885C416.564 527.182 445.889 528.741 449.898 527.554C454.5 526.143 434.975 521.317 434.975 521.317Z" fill="#0B4870"/>
<path d="M228.587 145.512C230.665 152.49 232.744 159.469 234.823 166.447C235.12 167.413 235.417 168.378 235.342 169.343C235.268 172.312 232.521 174.614 229.626 175.134C226.731 175.653 223.761 174.911 220.94 174.094C220.197 177.064 216.634 178.326 213.59 178.92C200.078 181.444 185.75 179.662 173.277 173.871C178.623 166.15 183.003 157.835 186.269 149.001C196.886 149.446 207.502 149.966 218.119 150.411C219.975 150.486 221.905 150.56 223.687 149.966C225.468 149.298 227.028 147.813 227.176 145.957" fill="#0E538C"/>
<path d="M105.347 237.347L102.229 233.709C102.229 233.709 100.002 231.853 96.8096 227.696C95.993 226.656 95.3991 225.394 94.9536 224.132C94.4339 222.573 93.84 220.495 93.9143 219.232C93.9885 217.673 92.1325 216.931 91.2416 218.045C90.3507 219.158 90.2022 223.39 92.1325 227.919C94.0627 232.447 87.1584 228.884 84.6342 227.547C82.11 226.285 74.092 222.722 73.0526 223.167C71.5678 223.835 72.0133 225.543 74.6117 226.805C77.2101 228.067 84.5599 232.225 83.8918 233.487C83.1494 234.749 70.38 228.141 70.38 228.141C70.38 228.141 67.8558 226.285 66.9649 227.77C65.3316 230.443 79.5116 236.53 80.8479 237.05C81.813 237.421 81.0706 238.906 80.0313 238.386C78.9919 237.941 67.4104 231.482 65.7028 234.155C64.4407 236.234 77.2844 239.277 78.9177 241.95C80.551 244.623 69.4149 238.683 68.227 240.688C67.7816 241.43 67.5588 242.099 74.5375 244.548C81.5903 247.073 101.932 250.933 101.932 250.933L105.199 236.976" fill="#FF957E"/>
<path d="M162.735 204.384C162.735 204.384 151.154 237.867 147.59 238.164C123.165 240.391 96.5869 229.849 96.5869 229.849L89.9053 248.706C89.9053 248.706 159.098 279.664 173.946 249.82C189.759 218.193 188.942 213.219 188.942 213.219L162.735 204.384Z" fill="#FCD2B1"/>
<path d="M164.294 393.698C176.692 450.64 258.208 503.574 258.208 503.574L272.091 486.573C272.091 486.573 206.537 428.145 203.79 402.161C200.969 376.177 222.721 335.419 222.721 335.419L200.152 325.842L164.294 393.698Z" fill="#0B4870"/>
<path d="M191.837 186.344C192.209 183.968 191.318 174.168 191.318 174.168C191.318 174.168 182.335 173.203 181.815 164.294C181.295 155.386 181.815 134.895 181.815 134.895L198.148 126.877L216.114 140.463L213.367 184.933L191.837 186.344Z" fill="#FFE3CA"/>
<path d="M214.852 147.442C214.852 147.442 200.153 146.031 197.629 132.742L181.741 147.442C181.741 147.442 176.915 137.568 185.75 128.436C194.585 119.305 200.598 121.161 204.088 121.161C207.28 121.161 223.613 124.65 228.438 143.136C228.81 144.472 229.107 147.813 229.329 149.298L214.852 147.442Z" fill="#0E538C"/>
<path d="M191.393 174.243C191.393 174.243 197.406 174.317 203.197 170.234C203.197 170.234 200.524 176.767 191.615 176.396L191.393 174.243Z" fill="#FCD2B1"/>
<path d="M172.907 286.643C172.907 289.835 174.02 294.215 174.02 294.215L237.125 312.404C237.125 312.404 241.653 283.896 230.146 268.009C224.875 260.733 226.063 250.488 228.216 241.727L235.64 211.808L225.692 183.671L185.973 186.344C185.973 186.344 162.958 184.042 154.94 214.481L169.714 236.679L169.863 245.068L172.907 286.643Z" fill="#58FF55"/>
<path d="M234.452 275.507C235.12 275.507 246.553 301.12 236.234 316.339C235.268 317.75 232.893 321.239 229.7 326.213C214.407 349.673 179.514 404.834 178.326 412.926C176.915 422.726 148.704 525.549 148.704 525.549L127.694 522.208L144.843 405.576L172.906 286.643L234.452 275.507Z" fill="#0E538C"/>
<path d="M198 131.703C198 131.703 194.733 138.013 196.144 142.765L181.889 146.477C181.889 146.402 178.623 128.362 198 131.703Z" fill="#0E538C"/>
<path d="M228.586 147.961C228.586 147.961 230.219 168.452 214.406 172.09L215.446 147.368L228.586 147.961Z" fill="#0E538C"/>
<path d="M163.849 243.435L128.436 258.357L70.4541 259.619L42.2427 211.734L101.858 207.725L127.694 254.051L163.626 240.094L163.849 243.435Z" fill="#FFBE55"/>
<path d="M157.464 208.245L147.516 232.522L169.788 243.583L171.867 222.351L157.464 208.245Z" fill="#58FF55"/>
<path d="M200.375 181.889L192.283 185.379L193.917 201.712L204.162 183.374L200.375 181.889Z" fill="#FFE3CA"/>
<path d="M125.764 522.208C125.764 522.208 107.278 527.108 111.881 528.519C116.484 529.929 148.481 526.44 148.481 526.44L149.521 522.802L125.764 522.208Z" fill="#0E538C"/>
<path d="M148.481 526.44L155.014 508.845H126.655L125.764 522.208L148.481 526.44Z" fill="#0E538C"/>
<path d="M258.431 504.762C258.431 504.762 253.754 523.322 257.243 519.981C260.658 516.64 273.279 487.018 273.279 487.018L270.607 484.346L258.431 504.762Z" fill="#0B4870"/>
<path d="M273.205 487.018L260.955 472.764L247.221 497.486L258.431 504.762L273.205 487.018Z" fill="#0B4870"/>
<path d="M217.153 158.652C217.079 157.167 217.079 155.608 217.599 154.272C218.118 152.861 219.306 151.674 220.791 151.525C222.499 151.377 224.132 152.787 224.429 154.42C224.726 156.128 223.686 157.835 222.202 158.726C220.717 159.543 218.861 159.543 217.228 158.875" fill="#FFE3CA"/>
<path d="M207.057 287.831C207.057 287.831 206.241 205.646 209.136 199.41C209.136 199.41 212.18 183.968 223.984 183.671L218.713 184.117C218.713 184.117 208.022 183.374 204.904 204.384C201.861 225.394 202.009 288.499 202.009 288.499L207.057 287.831Z" fill="#0E538C"/>
<path d="M184.191 290.726C184.191 290.726 180.998 196.292 183.523 186.344H180.33C180.33 186.344 177.509 194.436 178.029 217.079C178.4 230.665 178.029 290.726 178.029 290.726H184.191Z" fill="#0E538C"/>
<path d="M146.551 248.854C146.551 248.854 131.109 258.654 127.694 258.58C124.353 258.506 114.627 258.283 115.667 259.619C116.706 260.956 127.694 262.812 127.694 262.812L146.551 248.854Z" fill="#FFE3CA"/>
<path d="M147.665 269.493C147.665 269.493 220.792 289.167 230.814 257.392C241.43 223.687 241.579 232.447 241.579 232.447L218.639 210.324C218.639 210.324 206.315 249.226 202.825 250.117C183.597 255.016 161.77 251.898 154.049 250.488C153.158 249.745 152.193 248.929 151.005 247.815C150.04 246.924 149.224 245.811 148.63 244.623C147.887 243.138 146.996 241.208 146.848 239.946C146.625 238.387 144.695 237.941 144.027 239.129C143.359 240.317 143.804 244.548 146.477 248.706C146.477 248.706 129.03 259.916 127.62 262.589L147.665 269.493Z" fill="#FFE3CA"/>
<path d="M225.692 183.671C225.692 183.671 242.396 186.864 243.064 213.145C243.732 239.426 233.116 259.545 233.116 259.545L204.756 244.771L225.692 183.671Z" fill="#58FF55"/>
<path d="M371.352 443.068H294.735C291.172 443.068 288.276 440.172 288.276 436.609C288.276 433.045 291.172 430.15 294.735 430.15H371.277C374.841 430.15 377.736 433.045 377.736 436.609C377.811 440.172 374.915 443.068 371.352 443.068Z" fill="#D3D3D3"/>
<path d="M317.177 518.145V524.678H383.102V518.145H317.177Z" fill="#0B4870"/>
<path d="M323.243 523.396C323.837 526.811 321.536 530.004 318.121 530.523C314.706 531.117 311.513 528.816 310.994 525.401C310.4 521.986 312.701 518.793 316.116 518.274C319.531 517.68 322.724 519.981 323.243 523.396Z" fill="#0B4870"/>
<path d="M353.088 438.836H346.555V520.798H353.088V438.836Z" fill="#0B4870"/>
<path d="M389.169 523.396C389.763 526.811 387.462 530.004 384.047 530.523C380.632 531.117 377.439 528.816 376.92 525.401C376.326 521.986 378.627 518.793 382.042 518.274C385.457 517.68 388.65 519.981 389.169 523.396Z" fill="#0B4870"/>
<path d="M391.396 443.068H319.086C314.186 443.068 310.622 438.242 312.033 433.416L346.555 314.335C347.446 311.142 350.341 308.915 353.608 308.915H425.918C430.818 308.915 434.381 313.741 432.971 318.566L398.449 437.648C397.558 440.915 394.663 443.068 391.396 443.068Z" fill="#D3D3D3"/>
<path d="M381.448 443.068H318.418C313.518 443.068 309.954 438.242 311.365 433.416L345.887 314.335C346.778 311.142 349.673 308.915 352.94 308.915H415.97C420.87 308.915 424.433 313.741 423.023 318.566L388.501 437.648C387.61 440.915 384.715 443.068 381.448 443.068Z" fill="#F2F2F2"/>
<path d="M391.397 443.068H314.78C311.217 443.068 308.321 440.172 308.321 436.609C308.321 433.045 311.217 430.15 314.78 430.15H391.322C394.886 430.15 397.781 433.045 397.781 436.609C397.855 440.172 394.96 443.068 391.397 443.068Z" fill="#D3D3D3"/>
<path d="M328.069 341.952L311.068 387.165L315.077 395.999L338.018 391.99L344.551 343.66L328.069 341.952Z" fill="#FCD2B1"/>
<path d="M338.389 319.977C338.389 319.977 324.951 327.03 321.981 350.193L339.725 359.918L338.389 319.977Z" fill="#2A94F4"/>
<path d="M360.067 311.142L338.908 320.051L322.204 394.366L378.033 416.341L407.803 331.558C407.803 331.558 402.978 313.889 375.063 309.361L360.067 311.142Z" fill="#5CF859"/>
<path d="M416.49 398.375C416.49 397.41 415.896 391.545 415.599 390.58L406.393 331.707C404.611 323.615 395.554 319.531 388.353 323.54C383.007 326.51 380.632 332.821 382.711 338.537L393.624 389.095L416.49 398.375Z" fill="#FFE3CA"/>
<path d="M403.943 385.828L341.655 381.003L338.537 391.99L398.523 412.258C407.729 415.376 417.158 408.1 416.49 398.375C416.044 391.693 410.699 386.348 403.943 385.828Z" fill="#FFE3CA"/>
<path d="M400.157 321.759C400.157 321.759 408.1 325.174 411.515 345.813L383.453 354.425C383.453 354.425 365.115 333.86 384.715 320.125L400.157 321.759Z" fill="#2A94F4"/>
<path d="M322.13 392.658C324.432 398.746 335.939 399.043 342.101 396.742C348.189 394.44 354.499 390.951 352.198 384.789C349.896 378.701 339.725 375.063 333.043 376.548C324.951 378.404 319.829 386.496 322.13 392.658Z" fill="#FFE3CA"/>
<path d="M356.058 400.973L311.588 395.257L312.256 390.208L356.726 395.925C358.137 396.074 359.102 397.336 358.879 398.746C358.656 400.157 357.394 401.122 356.058 400.973Z" fill="#F2F2F2"/>
<path d="M317.453 395.999L258.506 388.427C255.091 387.981 252.418 385.383 251.973 381.968L245.811 339.205C245.291 335.419 248.483 332.152 252.269 332.672L306.391 339.651C308.692 339.948 310.474 341.729 310.771 343.957L317.453 395.999Z" fill="#F2F2F2"/>
<path d="M246.998 508.919L231.705 515.23L222.054 515.972C217.599 516.269 213.887 519.536 212.996 523.842L212.551 525.846L264.965 532.379L266.004 511.295L246.998 508.919Z" fill="#0B4870"/>
<path d="M266.004 511.295L271.126 488.355L252.195 485.756L246.998 508.919L266.004 511.295Z" fill="#FFE3CA"/>
<path d="M378.033 416.341C378.033 416.341 376.548 429.036 353.756 430.744H298.967L273.131 502.831L245.959 498.451L273.131 392.584L335.419 399.489L378.033 416.341Z" fill="#0B4870"/>
<path d="M203.123 467.493L186.715 465.043L178.029 460.663C174.02 458.658 169.195 459.549 166.151 462.742L164.74 464.226L206.315 496.744L218.045 479.223L203.123 467.493Z" fill="#0E538C"/>
<path d="M218.193 479.297L232.447 461.182L217.45 449.23L203.122 467.493L218.193 479.297Z" fill="#FFE3CA"/>
<path d="M322.204 394.366L279.961 381.745C278.18 381.225 276.472 380.557 274.69 379.963C271.052 378.553 261.847 376.622 254.72 387.536C245.588 401.567 208.987 454.278 208.987 454.278L231.334 470.759L280.11 408.62C284.193 402.978 290.726 399.637 297.705 399.637L335.419 399.563L322.204 394.366Z" fill="#0E538C"/>
<path d="M376.548 287.979C377.291 286.569 390.357 263.257 378.404 257.392C378.404 257.392 376.845 245.068 363.111 246.404C349.376 247.741 353.088 251.75 344.328 249.745C335.568 247.741 327.327 252.27 327.995 259.619C328.663 266.969 334.231 270.087 344.328 268.305C354.425 266.524 362.443 267.86 362.443 267.86L370.906 270.31L376.548 287.979Z" fill="#FFBE55"/>
<path d="M378.181 313.221L377.142 283.599L356.651 290.875L358.285 314.632C358.656 320.125 361.7 324.431 367.194 324.06L368.901 323.986C374.395 323.466 378.552 318.715 378.181 313.221Z" fill="#FFE3CA"/>
<path d="M375.361 287.682C375.361 287.682 379.221 312.404 358.137 313.815L357.172 302.085L375.361 287.682Z" fill="#FCD2B1"/>
<path d="M357.988 308.321H358.731C369.273 307.801 377.365 298.893 376.845 288.35L375.806 266.821C375.657 264.074 373.356 261.995 370.609 262.143L345.516 263.331C340.69 263.554 336.904 267.712 337.127 272.537L337.943 290.132C338.537 300.674 347.446 308.767 357.988 308.321Z" fill="#FFE3CA"/>
<path d="M372.019 281.891C372.168 285.455 375.212 288.202 378.775 287.979C382.339 287.831 385.086 284.787 384.863 281.223C384.715 277.66 381.671 274.913 378.107 275.136C374.618 275.284 371.871 278.328 372.019 281.891Z" fill="#FFE3CA"/>
<path d="M368.975 264.668L370.238 288.647C370.386 290.8 369.495 293.028 367.639 294.215C366.526 295.032 365.635 296.071 363.63 295.774C357.914 294.958 360.586 290.726 348.93 291.32C338.314 291.914 339.131 297.779 339.131 297.779C339.131 297.779 341.209 308.989 355.761 309.509C370.312 310.029 377.587 300.823 375.88 288.573L374.469 263.257L368.975 264.668Z" fill="#FFBE55"/>
<path d="M337.869 268.751C337.869 268.751 344.625 269.79 354.499 267.415C364.299 264.965 372.094 272.908 372.094 272.908C372.094 272.908 374.173 276.546 374.692 276.472C375.212 276.398 378.182 275.21 378.182 275.21L378.033 264.148L370.832 258.506L350.861 257.689L339.057 260.288L337.869 268.751Z" fill="#FFBE55"/>
<defs>
<linearGradient id="paint0_linear_253_85" x1="305.543" y1="40.4228" x2="306" y2="795.5" gradientUnits="userSpaceOnUse">
<stop stop-color="#B8182D"/>
<stop offset="1" stop-color="#881022"/>
</linearGradient>
</defs>
</svg>
