<svg width="71" height="81" viewBox="0 0 71 81" fill="none" xmlns="http://www.w3.org/2000/svg">
<path fill-rule="evenodd" clip-rule="evenodd" d="M35.5 5.0625C15.9243 5.0625 0 20.9588 0 40.5C0 60.0412 15.9243 75.9375 35.5 75.9375C37.9343 75.9375 40.2671 75.6844 42.4986 75.2287C41.6364 74.8237 41.4843 71.5331 42.3971 69.7106C43.3607 67.635 46.505 62.37 43.4114 60.5981C40.3179 58.8263 41.18 58.0669 39.3036 55.9913C37.4271 53.9156 38.1879 53.6119 38.0357 53.055C37.63 51.3337 39.8614 48.5494 40.0136 48.2962C40.115 47.9925 40.115 46.9294 40.0136 46.6256C40.0136 46.2206 38.6443 45.5119 38.2893 45.4612C37.985 45.4612 37.7314 46.0181 37.275 46.1194C36.8186 46.2206 34.7393 44.8537 34.2829 44.4487C33.8264 44.0437 33.5729 43.2844 32.9136 42.7275C32.2543 42.0694 32.2036 42.5756 31.24 42.1706C30.2764 41.7656 27.1829 40.6012 24.7486 39.7406C22.3143 38.7788 22.1114 37.3613 22.1114 36.3994C22.01 35.3869 20.59 34.02 19.9814 33.0075C19.2714 31.995 19.17 30.6281 18.9671 30.9319C18.7643 31.2356 20.235 34.8806 19.9814 35.0325C19.7279 35.1338 19.17 34.02 18.46 33.1087C17.75 32.1469 19.17 32.6531 16.9386 28.2994C14.7071 23.9456 17.6486 21.7181 17.8007 19.44C17.9529 17.1619 19.7279 20.3006 18.7643 18.7819C17.8007 17.2631 18.7643 14.2762 18.0543 13.1625C17.395 12.0487 13.5914 14.4281 13.5914 14.4281C13.6929 13.3144 17.0907 11.4919 19.4743 9.77062C21.8579 8.04937 23.43 9.46688 25.3571 10.0238C27.335 10.6819 27.4364 10.4794 26.7771 9.77062C26.1179 9.1125 27.0814 8.91 28.6029 9.1125C30.0229 9.36562 30.53 11.1881 32.8121 10.935C35.1957 10.7831 33.0657 11.3906 33.37 12.0488C33.6743 12.7069 33.0657 12.6056 31.4429 13.5675C29.9214 14.58 31.5443 14.6812 34.2321 16.6556C36.92 18.63 36.1593 15.39 35.8043 13.8713C35.4493 12.3525 37.7821 13.5675 37.7821 13.5675C39.4557 14.6813 39.1514 13.6687 40.3179 13.9725C41.4843 14.2762 44.9329 17.2125 44.9329 17.2125C40.7236 19.44 43.3607 19.6425 44.0707 20.1994C44.7807 20.7563 42.6507 21.7181 42.6507 21.7181C41.7886 20.8575 41.6871 21.8194 41.1293 22.1231C40.5714 22.4269 41.0279 23.2369 41.0279 23.2369C38.1879 23.6925 38.7964 26.73 38.8979 27.4388C38.8979 28.1475 36.9707 29.2612 36.5143 30.375C36.0579 31.3875 37.7821 33.615 36.8186 33.7162C35.855 33.8681 35.0943 30.375 30.175 31.6406C28.6536 32.0456 25.4079 33.7162 27.1829 37.1081C29.0086 40.6012 31.8486 36.1462 32.8121 36.6525C33.7757 37.1587 32.5079 39.3356 32.7107 39.4369C32.9136 39.5381 35.3986 39.5381 35.5507 42.525C35.7029 45.5119 39.4557 45.2081 40.2164 45.3094C41.0786 45.3094 43.7664 43.0819 44.1214 43.0312C44.4257 42.8794 46.0486 41.6138 49.345 43.4869C52.6921 45.3094 54.315 45.0563 55.4307 45.8663C56.5464 46.6763 55.8364 48.2456 56.8507 48.8025C57.865 49.3594 62.2264 48.6506 63.3421 50.3719C64.4579 52.0931 58.8793 60.9525 57.155 61.9144C55.4307 62.8762 54.7207 65.1544 52.895 66.5719C51.0693 67.9894 48.7871 69.8119 46.4543 71.1787C44.375 72.3431 44.0707 74.52 43.1071 75.2287C59.0314 71.685 70.8986 57.51 70.8986 40.6013C70.8986 21.06 54.9743 5.16375 35.3986 5.16375L35.5 5.0625ZM43.8171 38.2725C43.3607 38.4244 42.3971 39.3862 39.8614 37.8675C37.4271 36.3487 35.7536 36.7031 35.5 36.45C35.5 36.45 35.2464 35.8931 36.3621 35.7412C38.5936 35.4881 41.3321 37.8169 41.9914 37.8169C42.6507 37.8169 42.955 37.1587 44.0707 37.5638C45.1864 37.9688 44.3243 38.2219 43.8171 38.2725ZM32.1529 8.60625C31.8993 8.45438 32.305 8.20125 32.6093 7.8975C32.7614 7.74562 32.7107 7.34062 32.8629 7.18875C33.4207 6.63187 35.9564 5.92313 35.5 7.34063C34.9421 8.7075 32.5586 8.85938 32.1529 8.60625ZM38.3907 13.1119C37.4271 13.0106 35.4493 12.8588 35.7536 12.4031C37.275 10.9856 35.2971 10.4794 34.0293 10.4794C32.7614 10.3781 32.305 9.66937 32.9136 9.5175C33.5221 9.36562 36.0071 9.61875 36.4636 9.9225C36.8693 10.2263 39.1007 11.1881 39.2529 11.8462C39.3543 12.5044 39.2529 13.1119 38.3907 13.1119ZM45.8457 12.8587C45.1357 13.3144 41.6364 10.7831 41.0279 10.2262C38.1879 7.79625 36.5143 8.65688 35.9564 8.15062C35.3986 7.64438 35.5507 7.18875 36.5143 6.42937C37.4779 5.67 40.0136 6.73313 41.5857 6.885C43.1071 7.03688 44.9329 8.25187 44.9329 9.66937C45.0343 10.935 46.6064 12.2006 45.8964 12.8587H45.8457Z" fill="#D90429"/>
</svg>